<mxfile host="app.diagrams.net" modified="2022-04-06T15:52:05.752Z" agent="5.0 (Windows NT 10.0; Win64; x64) AppleWebKit/537.36 (KHTML, like Gecko) Chrome/99.0.4844.84 Safari/537.36" etag="uXeAcXDAyMqg9SNaFxbb" version="17.4.0" type="github">
  <diagram id="C5RBs43oDa-KdzZeNtuy" name="Page-1">
    <mxGraphModel dx="2048" dy="644" grid="1" gridSize="10" guides="1" tooltips="1" connect="1" arrows="1" fold="1" page="1" pageScale="1" pageWidth="827" pageHeight="1169" math="0" shadow="0">
      <root>
        <mxCell id="WIyWlLk6GJQsqaUBKTNV-0" />
        <mxCell id="WIyWlLk6GJQsqaUBKTNV-1" parent="WIyWlLk6GJQsqaUBKTNV-0" />
        <mxCell id="zkfFHV4jXpPFQw0GAbJ--0" value="Localizer&#xa;座標変換、エラー処理、ノードのやり取りを行う" style="swimlane;fontStyle=1;align=center;verticalAlign=top;childLayout=stackLayout;horizontal=1;startSize=40;horizontalStack=0;resizeParent=1;resizeLast=0;collapsible=1;marginBottom=0;rounded=0;shadow=0;strokeWidth=1;" parent="WIyWlLk6GJQsqaUBKTNV-1" vertex="1">
          <mxGeometry x="-320" y="210" width="420" height="265" as="geometry">
            <mxRectangle x="230" y="140" width="160" height="26" as="alternateBounds" />
          </mxGeometry>
        </mxCell>
        <mxCell id="zkfFHV4jXpPFQw0GAbJ--1" value="・メンバ変数&#xa;- 周波数&#xa;- 各初期化の値&#xa;- オドメトリ、マップ、センサ情報&#xa;- パブリッシュするパーティクル情報や位置姿勢の推定値&#xa;&#xa;・メンバ関数&#xa;- オドメトリ、マップ、センサのコールバック" style="text;align=left;verticalAlign=top;spacingLeft=4;spacingRight=4;overflow=hidden;rotatable=0;points=[[0,0.5],[1,0.5]];portConstraint=eastwest;" parent="zkfFHV4jXpPFQw0GAbJ--0" vertex="1">
          <mxGeometry y="40" width="420" height="130" as="geometry" />
        </mxCell>
        <mxCell id="zkfFHV4jXpPFQw0GAbJ--4" value="" style="line;html=1;strokeWidth=1;align=left;verticalAlign=middle;spacingTop=-1;spacingLeft=3;spacingRight=3;rotatable=0;labelPosition=right;points=[];portConstraint=eastwest;" parent="zkfFHV4jXpPFQw0GAbJ--0" vertex="1">
          <mxGeometry y="170" width="420" height="8" as="geometry" />
        </mxCell>
        <mxCell id="zkfFHV4jXpPFQw0GAbJ--5" value="・メンバ関数&#xa;+ コンストラクタ () &#xa;+ 設定した初期値を提供する ()" style="text;align=left;verticalAlign=top;spacingLeft=4;spacingRight=4;overflow=hidden;rotatable=0;points=[[0,0.5],[1,0.5]];portConstraint=eastwest;" parent="zkfFHV4jXpPFQw0GAbJ--0" vertex="1">
          <mxGeometry y="178" width="420" height="56" as="geometry" />
        </mxCell>
        <mxCell id="5O-7Nz4w95hIYYR0NGzh-15" value="+ プロセスの実行 () : void" style="text;align=left;verticalAlign=top;spacingLeft=4;spacingRight=4;overflow=hidden;rotatable=0;points=[[0,0.5],[1,0.5]];portConstraint=eastwest;fontStyle=0;fontColor=#999999;" vertex="1" parent="zkfFHV4jXpPFQw0GAbJ--0">
          <mxGeometry y="234" width="420" height="30" as="geometry" />
        </mxCell>
        <mxCell id="5O-7Nz4w95hIYYR0NGzh-28" style="edgeStyle=orthogonalEdgeStyle;rounded=0;orthogonalLoop=1;jettySize=auto;html=1;entryX=0.502;entryY=0.992;entryDx=0;entryDy=0;entryPerimeter=0;fontSize=12;fontColor=#000000;" edge="1" parent="WIyWlLk6GJQsqaUBKTNV-1" source="5O-7Nz4w95hIYYR0NGzh-3" target="5O-7Nz4w95hIYYR0NGzh-14">
          <mxGeometry relative="1" as="geometry" />
        </mxCell>
        <mxCell id="5O-7Nz4w95hIYYR0NGzh-3" value="Particle&#xa;個々のパーティクル情報を保持する" style="swimlane;fontStyle=1;align=center;verticalAlign=top;childLayout=stackLayout;horizontal=1;startSize=40;horizontalStack=0;resizeParent=1;resizeLast=0;collapsible=1;marginBottom=0;rounded=0;shadow=0;strokeWidth=1;" vertex="1" parent="WIyWlLk6GJQsqaUBKTNV-1">
          <mxGeometry x="469" y="640" width="270" height="184" as="geometry">
            <mxRectangle x="130" y="380" width="160" height="26" as="alternateBounds" />
          </mxGeometry>
        </mxCell>
        <mxCell id="5O-7Nz4w95hIYYR0NGzh-4" value="・メンバ変数&#xa;- 位置姿勢 (x,y,θ) : double &#xa;- 重み : double" style="text;align=left;verticalAlign=top;spacingLeft=4;spacingRight=4;overflow=hidden;rotatable=0;points=[[0,0.5],[1,0.5]];portConstraint=eastwest;fontStyle=0" vertex="1" parent="5O-7Nz4w95hIYYR0NGzh-3">
          <mxGeometry y="40" width="270" height="64" as="geometry" />
        </mxCell>
        <mxCell id="5O-7Nz4w95hIYYR0NGzh-6" value="" style="line;html=1;strokeWidth=1;align=left;verticalAlign=middle;spacingTop=-1;spacingLeft=3;spacingRight=3;rotatable=0;labelPosition=right;points=[];portConstraint=eastwest;" vertex="1" parent="5O-7Nz4w95hIYYR0NGzh-3">
          <mxGeometry y="104" width="270" height="8" as="geometry" />
        </mxCell>
        <mxCell id="5O-7Nz4w95hIYYR0NGzh-7" value="・メンバ関数&#xa;+ コンストラクタ (初期化の値 デフォルト値 0)&#xa;+ private 情報を変更する (設定値) : void&#xa;+ private 情報を提供する (): double" style="text;align=left;verticalAlign=top;spacingLeft=4;spacingRight=4;overflow=hidden;rotatable=0;points=[[0,0.5],[1,0.5]];portConstraint=eastwest;fontStyle=0" vertex="1" parent="5O-7Nz4w95hIYYR0NGzh-3">
          <mxGeometry y="112" width="270" height="72" as="geometry" />
        </mxCell>
        <mxCell id="5O-7Nz4w95hIYYR0NGzh-20" style="edgeStyle=orthogonalEdgeStyle;rounded=0;orthogonalLoop=1;jettySize=auto;html=1;fontSize=14;fontColor=#000000;" edge="1" parent="WIyWlLk6GJQsqaUBKTNV-1" source="5O-7Nz4w95hIYYR0NGzh-10" target="zkfFHV4jXpPFQw0GAbJ--5">
          <mxGeometry relative="1" as="geometry">
            <Array as="points">
              <mxPoint x="290" y="392" />
              <mxPoint x="290" y="392" />
            </Array>
          </mxGeometry>
        </mxCell>
        <mxCell id="5O-7Nz4w95hIYYR0NGzh-10" value="ParticleFilter&#xa;パーティクルを用いて位置推定を行う" style="swimlane;fontStyle=1;align=center;verticalAlign=top;childLayout=stackLayout;horizontal=1;startSize=40;horizontalStack=0;resizeParent=1;resizeLast=0;collapsible=1;marginBottom=0;rounded=0;shadow=0;strokeWidth=1;" vertex="1" parent="WIyWlLk6GJQsqaUBKTNV-1">
          <mxGeometry x="414" y="210" width="380" height="380" as="geometry">
            <mxRectangle x="130" y="380" width="160" height="26" as="alternateBounds" />
          </mxGeometry>
        </mxCell>
        <mxCell id="5O-7Nz4w95hIYYR0NGzh-11" value="・メンバ変数&#xa;- パーティクル数 : int&#xa;- 初期化の値とノイズの標準偏差 : double&#xa;&#xa;・メンバ関数&#xa;- ノイズを乗せる (平均, 標準偏差) : double&#xa;- 角度を修正する (元の角度) : double&#xa;- 重みをを正規化する (Particle) : double" style="text;align=left;verticalAlign=top;spacingLeft=4;spacingRight=4;overflow=hidden;rotatable=0;points=[[0,0.5],[1,0.5]];portConstraint=eastwest;" vertex="1" parent="5O-7Nz4w95hIYYR0NGzh-10">
          <mxGeometry y="40" width="380" height="134" as="geometry" />
        </mxCell>
        <mxCell id="5O-7Nz4w95hIYYR0NGzh-12" value="" style="line;html=1;strokeWidth=1;align=left;verticalAlign=middle;spacingTop=-1;spacingLeft=3;spacingRight=3;rotatable=0;labelPosition=right;points=[];portConstraint=eastwest;" vertex="1" parent="5O-7Nz4w95hIYYR0NGzh-10">
          <mxGeometry y="174" width="380" height="8" as="geometry" />
        </mxCell>
        <mxCell id="5O-7Nz4w95hIYYR0NGzh-13" value="・メンバ変数&#xa;+ パーティクルのベクタ : vector&lt;Particle&gt;&#xa;&#xa;・メンバ関数&#xa;+ コンストラクタ ()&#xa;+ パーティクルの初期化する () : void&#xa;+ パーティクルの移動量を算出する (オドメトリの前後情報) : void&#xa;+ パーティクルを移動させる (距離,回転量) : void&#xa;" style="text;align=left;verticalAlign=top;spacingLeft=4;spacingRight=4;overflow=hidden;rotatable=0;points=[[0,0.5],[1,0.5]];portConstraint=eastwest;fontStyle=0" vertex="1" parent="5O-7Nz4w95hIYYR0NGzh-10">
          <mxGeometry y="182" width="380" height="122" as="geometry" />
        </mxCell>
        <mxCell id="5O-7Nz4w95hIYYR0NGzh-14" value="+ 観測情報から重みを更新する (センサ情報) : void&#xa;+ リサンプリング () : void&#xa;+ 位置姿勢を一意に推定する ()&#xa;+ パーティクル数のエラー処理 (パーティクル数) : void" style="text;align=left;verticalAlign=top;spacingLeft=4;spacingRight=4;overflow=hidden;rotatable=0;points=[[0,0.5],[1,0.5]];portConstraint=eastwest;fontStyle=0;fontColor=#999999;" vertex="1" parent="5O-7Nz4w95hIYYR0NGzh-10">
          <mxGeometry y="304" width="380" height="76" as="geometry" />
        </mxCell>
        <mxCell id="5O-7Nz4w95hIYYR0NGzh-17" value="&lt;font color=&quot;#000000&quot; style=&quot;font-size: 14px&quot;&gt;- : private&lt;br&gt;+ : public&lt;/font&gt;" style="text;html=1;align=center;verticalAlign=middle;resizable=0;points=[];autosize=1;strokeColor=none;fillColor=none;fontSize=11;fontColor=#999999;" vertex="1" parent="WIyWlLk6GJQsqaUBKTNV-1">
          <mxGeometry x="-160" y="760" width="70" height="40" as="geometry" />
        </mxCell>
        <mxCell id="5O-7Nz4w95hIYYR0NGzh-21" value="&lt;font style=&quot;font-size: 12px&quot;&gt;各パーティクルと一意に推定した位置姿勢の情報&lt;/font&gt;" style="text;html=1;align=center;verticalAlign=middle;resizable=0;points=[];autosize=1;strokeColor=none;fillColor=none;fontSize=14;fontColor=#000000;" vertex="1" parent="WIyWlLk6GJQsqaUBKTNV-1">
          <mxGeometry x="124" y="360" width="280" height="20" as="geometry" />
        </mxCell>
        <mxCell id="5O-7Nz4w95hIYYR0NGzh-24" value="&lt;span style=&quot;font-size: 12px&quot;&gt;初期値やオドメトリ情報&lt;/span&gt;" style="text;html=1;align=center;verticalAlign=middle;resizable=0;points=[];autosize=1;strokeColor=none;fillColor=none;fontSize=14;fontColor=#000000;" vertex="1" parent="WIyWlLk6GJQsqaUBKTNV-1">
          <mxGeometry x="189" y="280" width="150" height="20" as="geometry" />
        </mxCell>
        <mxCell id="5O-7Nz4w95hIYYR0NGzh-27" value="" style="endArrow=classic;html=1;rounded=0;fontSize=12;fontColor=#000000;exitX=1;exitY=0.5;exitDx=0;exitDy=0;entryX=0;entryY=0.5;entryDx=0;entryDy=0;" edge="1" parent="WIyWlLk6GJQsqaUBKTNV-1" source="zkfFHV4jXpPFQw0GAbJ--1" target="5O-7Nz4w95hIYYR0NGzh-11">
          <mxGeometry width="50" height="50" relative="1" as="geometry">
            <mxPoint x="230" y="330" as="sourcePoint" />
            <mxPoint x="280" y="280" as="targetPoint" />
          </mxGeometry>
        </mxCell>
        <mxCell id="5O-7Nz4w95hIYYR0NGzh-29" value="&lt;span style=&quot;font-size: 12px&quot;&gt;個々のパーティクルが持つ情報&lt;/span&gt;" style="text;html=1;align=center;verticalAlign=middle;resizable=0;points=[];autosize=1;strokeColor=none;fillColor=none;fontSize=14;fontColor=#000000;" vertex="1" parent="WIyWlLk6GJQsqaUBKTNV-1">
          <mxGeometry x="414" y="610" width="180" height="20" as="geometry" />
        </mxCell>
      </root>
    </mxGraphModel>
  </diagram>
</mxfile>
